<svg width="57" height="16" viewBox="0 0 57 16" fill="none" xmlns="http://www.w3.org/2000/svg">
<path d="M11.6749 16C14.0636 16 16 14.0636 16 11.6749C16 9.28624 14.0636 7.34983 11.6749 7.34983C9.28626 7.34983 7.34985 9.28624 7.34985 11.6749C7.34985 14.0636 9.28626 16 11.6749 16Z" fill="#9CA0AB"/>
<path d="M3.55235 13.682C4.66083 13.682 5.55942 12.7834 5.55942 11.6749C5.55942 10.5665 4.66083 9.66787 3.55235 9.66787C2.44388 9.66787 1.54529 10.5665 1.54529 11.6749C1.54529 12.7834 2.44388 13.682 3.55235 13.682Z" fill="#9CA0AB"/>
<path d="M11.6749 6.33218C13.2101 6.33218 14.4546 5.08765 14.4546 3.55244C14.4546 2.01723 13.2101 0.772697 11.6749 0.772697C10.1397 0.772697 8.89514 2.01723 8.89514 3.55244C8.89514 5.08765 10.1397 6.33218 11.6749 6.33218Z" fill="#9CA0AB"/>
<path d="M3.55241 7.10483C5.51436 7.10483 7.10483 5.51436 7.10483 3.55241C7.10483 1.59047 5.51436 0 3.55241 0C1.59047 0 0 1.59047 0 3.55241C0 5.51436 1.59047 7.10483 3.55241 7.10483Z" fill="#9CA0AB"/>
<path d="M27.2226 13.6631H29.4653L25.3098 2.35571H23.6796L19.5242 13.6631H21.7762L22.5677 11.5053H26.4311L27.2226 13.6631L23.1897 9.79977L24.4994 6.24735L25.8092 9.79977H23.1897L27.2226 13.6631Z" fill="#9CA0AB"/>
<path d="M35.0247 5.93639L32.9611 11.5524L30.8975 5.93639H28.7867L31.623 13.6631H34.2897L37.1259 5.93639H35.0247Z" fill="#9CA0AB"/>
<path d="M38.0212 5.93639H40.132V13.6631H38.0212V5.93639Z" fill="#9CA0AB"/>
<path d="M39.0766 5.06005C39.826 5.06005 40.4335 4.45255 40.4335 3.70316C40.4335 2.95377 39.826 2.34627 39.0766 2.34627C38.3272 2.34627 37.7197 2.95377 37.7197 3.70316C37.7197 4.45255 38.3272 5.06005 39.0766 5.06005Z" fill="#9CA0AB"/>
<path d="M47.5666 7.64192V5.93638H45.0413V3.80682H42.9305V5.93638H41.2627V7.64192H42.9305V10.9682C42.9305 12.6831 43.788 13.8233 45.9741 13.8233C46.8222 13.8233 47.5572 13.5124 47.5572 13.5124L47.3027 11.8445C47.3027 11.8445 46.8881 11.967 46.3793 11.967C45.7574 11.967 45.0318 11.6937 45.0318 10.8363V7.64192H47.5666Z" fill="#9CA0AB"/>
<path d="M52.4004 11.8916C51.2226 11.8916 50.2709 10.9588 50.2709 9.80918C50.2709 8.65959 51.2226 7.72673 52.4004 7.72673C53.5783 7.72673 54.53 8.65959 54.53 9.80918C54.53 10.9588 53.5783 11.8916 52.4004 11.8916ZM52.4004 5.73851C50.1201 5.73851 48.2638 7.54769 48.2638 9.78091C48.2638 12.0141 50.1201 13.8233 52.4004 13.8233C54.6808 13.8233 56.5371 12.0141 56.5371 9.78091C56.5371 7.54769 54.6808 5.73851 52.4004 5.73851Z" fill="#9CA0AB"/>
</svg>
