<svg width="24" height="24" viewBox="0 0 24 24" fill="none" xmlns="http://www.w3.org/2000/svg">
<g clip-path="url(#clip0_310_136)">
<path d="M23.2969 8.48437H20.8223L15.4084 1.71702C15.1659 1.41388 14.7234 1.36462 14.4202 1.60724C14.1169 1.84982 14.0677 2.29227 14.3104 2.59551L19.0215 8.48437H4.97855L9.68967 2.59551C9.93225 2.29227 9.88308 1.84977 9.57989 1.60724C9.27661 1.36462 8.83416 1.41384 8.59163 1.71702L3.1777 8.48437H0.703125C0.314812 8.48437 0 8.79918 0 9.18749V10.5937C0 10.9821 0.314812 11.2969 0.703125 11.2969H23.2969C23.6852 11.2969 24 10.9821 24 10.5937V9.18749C24 8.79918 23.6852 8.48437 23.2969 8.48437Z" fill="#616575"/>
<path d="M4.24587 22.0369C4.33212 22.3388 4.60802 22.5469 4.92195 22.5469H19.0782C19.3921 22.5469 19.668 22.3388 19.7543 22.0369L22.421 12.7031H1.5791L4.24587 22.0369ZM15.2206 18.9157L15.9237 14.697C15.9875 14.3139 16.3498 14.055 16.7329 14.119C17.1159 14.1828 17.3747 14.5451 17.3108 14.9281L16.6077 19.1469C16.5504 19.4908 16.2525 19.7346 15.915 19.7346C15.8766 19.7346 15.8377 19.7314 15.7985 19.7249C15.4155 19.661 15.1567 19.2987 15.2206 18.9157ZM11.2969 14.8125C11.2969 14.4242 11.6118 14.1094 12.0001 14.1094C12.3884 14.1094 12.7032 14.4242 12.7032 14.8125V19.0312C12.7032 19.4196 12.3884 19.7344 12.0001 19.7344C11.6118 19.7344 11.2969 19.4196 11.2969 19.0312V14.8125ZM7.31416 14.119C7.69727 14.0552 8.05948 14.3139 8.12332 14.697L8.82645 18.9157C8.89029 19.2987 8.63154 19.661 8.24848 19.7249C8.20938 19.7314 8.17043 19.7346 8.13204 19.7346C7.79449 19.7346 7.49665 19.4909 7.43932 19.1469L6.7362 14.9281C6.67235 14.5451 6.9311 14.1828 7.31416 14.119Z" fill="#616575"/>
</g>
<defs>
<clipPath id="clip0_310_136">
<rect width="24" height="24" fill="white"/>
</clipPath>
</defs>
</svg>
