<svg width="464" height="612" viewBox="0 0 464 612" fill="none" xmlns="http://www.w3.org/2000/svg">
<rect width="464" height="612" fill="#F7F7FC"/>
<path d="M222.992 295.609C223.886 296.46 224.333 297.493 224.333 298.708C224.333 299.924 223.886 300.957 222.992 301.807C222.097 302.658 221.011 303.083 219.733 303.083C218.456 303.083 217.369 302.658 216.475 301.807C215.581 300.957 215.133 299.924 215.133 298.708C215.133 297.493 215.581 296.46 216.475 295.609C217.369 294.759 218.456 294.333 219.733 294.333C221.011 294.333 222.097 294.759 222.992 295.609ZM248.867 307.458V317.667H215.133V313.292L222.8 306L226.633 309.646L238.9 297.979L248.867 307.458ZM251.167 291.417H212.833C212.626 291.417 212.446 291.489 212.294 291.633C212.143 291.777 212.067 291.948 212.067 292.146V319.854C212.067 320.052 212.143 320.223 212.294 320.367C212.446 320.511 212.626 320.583 212.833 320.583H251.167C251.374 320.583 251.554 320.511 251.706 320.367C251.857 320.223 251.933 320.052 251.933 319.854V292.146C251.933 291.948 251.857 291.777 251.706 291.633C251.554 291.489 251.374 291.417 251.167 291.417ZM255 292.146V319.854C255 320.857 254.625 321.715 253.874 322.429C253.123 323.143 252.221 323.5 251.167 323.5H212.833C211.779 323.5 210.877 323.143 210.126 322.429C209.375 321.715 209 320.857 209 319.854V292.146C209 291.143 209.375 290.285 210.126 289.571C210.877 288.857 211.779 288.5 212.833 288.5H251.167C252.221 288.5 253.123 288.857 253.874 289.571C254.625 290.285 255 291.143 255 292.146Z" fill="#CDCFD6"/>
</svg>
