<?xml version="1.0" standalone="no"?>
<!DOCTYPE svg PUBLIC "-//W3C//DTD SVG 20010904//EN"
 "http://www.w3.org/TR/2001/REC-SVG-20010904/DTD/svg10.dtd">
<svg version="1.0" xmlns="http://www.w3.org/2000/svg"
 width="512.000000pt" height="512.000000pt" viewBox="0 0 512.000000 512.000000"
 preserveAspectRatio="xMidYMid meet">

<g transform="translate(0.000000,512.000000) scale(0.100000,-0.100000)"
fill="#000000" stroke="none">
<path d="M1245 5024 c-320 -30 -571 -137 -790 -336 -439 -398 -557 -956 -350
-1644 263 -870 1042 -1835 2310 -2861 108 -87 130 -98 166 -84 24 9 195 148
404 330 683 592 1239 1198 1576 1716 355 544 522 983 554 1455 9 120 -8 300
-39 422 -90 354 -313 648 -631 831 -172 99 -353 152 -575 169 -133 11 -155 10
-273 -10 -313 -53 -551 -175 -762 -393 -97 -100 -188 -228 -239 -337 -16 -34
-32 -62 -36 -62 -3 0 -24 37 -47 83 -117 235 -349 465 -588 585 -191 95 -487
154 -680 136z"/>
</g>
</svg>
