<svg width="24" height="22" viewBox="0 0 24 22" fill="none" xmlns="http://www.w3.org/2000/svg">
<path d="M2.91438 2.99933L2.91319 3.00058C0.362274 5.66535 0.362274 9.79581 2.91314 12.4606L2.9208 12.4686L2.92085 12.4685L10.7643 20.4827C10.7643 20.4827 10.7644 20.4827 10.7644 20.4827C10.7861 20.5049 10.8083 20.5264 10.8309 20.5472L2.91438 2.99933ZM2.91438 2.99933C4.14064 1.72275 5.85165 1.00278 7.63684 1.00011L7.63946 1.00011C9.25355 1.00192 10.8074 1.58953 11.9979 2.64467C14.456 0.456958 18.2647 0.437135 20.7494 2.67312L20.7495 2.67326C20.8655 2.77767 20.9778 2.88632 21.086 2.99912L21.0867 2.9999C23.6378 5.66492 23.6378 9.79556 21.0867 12.4606L21.0868 12.4606L21.0789 12.4687L13.2324 20.483M2.91438 2.99933L13.2324 20.483M13.2324 20.483C12.5824 21.1475 11.5145 21.174 10.8312 20.5474L13.2324 20.483Z" stroke="#616575" stroke-width="2"/>
</svg>
