<svg width="16" height="16" viewBox="0 0 16 16" fill="none" xmlns="http://www.w3.org/2000/svg">
<path d="M9.88542 9.88542C10.4063 9.36458 10.6667 8.73611 10.6667 8C10.6667 7.26389 10.4063 6.63542 9.88542 6.11458C9.36458 5.59375 8.73611 5.33333 8 5.33333C7.26389 5.33333 6.63542 5.59375 6.11458 6.11458C5.59375 6.63542 5.33333 7.26389 5.33333 8C5.33333 8.73611 5.59375 9.36458 6.11458 9.88542C6.63542 10.4063 7.26389 10.6667 8 10.6667C8.73611 10.6667 9.36458 10.4063 9.88542 9.88542ZM10.9062 5.09375C11.7049 5.89236 12.1042 6.8611 12.1042 8C12.1042 9.13889 11.7049 10.1076 10.9062 10.9062C10.1076 11.7049 9.13889 12.1042 8 12.1042C6.8611 12.1042 5.89236 11.7049 5.09375 10.9062C4.29514 10.1076 3.89583 9.13889 3.89583 8C3.89583 6.8611 4.29514 5.89236 5.09375 5.09375C5.89236 4.29514 6.8611 3.89583 8 3.89583C9.13889 3.89583 10.1076 4.29514 10.9062 5.09375ZM12.9479 3.05208C13.1354 3.23958 13.2292 3.46528 13.2292 3.72917C13.2292 3.99306 13.1354 4.21875 12.9479 4.40625C12.7604 4.59375 12.5347 4.6875 12.2708 4.6875C12.0069 4.6875 11.7813 4.59375 11.5938 4.40625C11.4062 4.21875 11.3125 3.99306 11.3125 3.72917C11.3125 3.46528 11.4062 3.23958 11.5938 3.05208C11.7813 2.86458 12.0069 2.77083 12.2708 2.77083C12.5347 2.77083 12.7604 2.86458 12.9479 3.05208ZM8.79167 1.4375C8.3125 1.4375 8.04861 1.4375 8 1.4375C7.95139 1.4375 7.68577 1.43576 7.20313 1.43229C6.72048 1.42882 6.35417 1.42882 6.10417 1.43229C5.85417 1.43576 5.5191 1.44618 5.09896 1.46354C4.67882 1.4809 4.32118 1.51562 4.02604 1.56771C3.7309 1.61979 3.48264 1.68403 3.28125 1.76042C2.93403 1.89931 2.62847 2.10069 2.36458 2.36458C2.10069 2.62847 1.89931 2.93403 1.76042 3.28125C1.68403 3.48264 1.61979 3.7309 1.56771 4.02604C1.51562 4.32118 1.4809 4.67882 1.46354 5.09896C1.44618 5.5191 1.43576 5.85417 1.43229 6.10417C1.42882 6.35417 1.42882 6.72048 1.43229 7.20313C1.43576 7.68577 1.4375 7.95139 1.4375 8C1.4375 8.04861 1.43576 8.31423 1.43229 8.79688C1.42882 9.27952 1.42882 9.64583 1.43229 9.89583C1.43576 10.1458 1.44618 10.4809 1.46354 10.901C1.4809 11.3212 1.51562 11.6788 1.56771 11.974C1.61979 12.2691 1.68403 12.5174 1.76042 12.7188C1.89931 13.066 2.10069 13.3715 2.36458 13.6354C2.62847 13.8993 2.93403 14.1007 3.28125 14.2396C3.48264 14.316 3.7309 14.3802 4.02604 14.4323C4.32118 14.4844 4.67882 14.5191 5.09896 14.5365C5.5191 14.5538 5.85417 14.5642 6.10417 14.5677C6.35417 14.5712 6.72048 14.5712 7.20313 14.5677C7.68577 14.5642 7.95139 14.5625 8 14.5625C8.04861 14.5625 8.31423 14.5642 8.79688 14.5677C9.27952 14.5712 9.64583 14.5712 9.89583 14.5677C10.1458 14.5642 10.4809 14.5538 10.901 14.5365C11.3212 14.5191 11.6788 14.4844 11.974 14.4323C12.2691 14.3802 12.5174 14.316 12.7188 14.2396C13.066 14.1007 13.3715 13.8993 13.6354 13.6354C13.8993 13.3715 14.1007 13.066 14.2396 12.7188C14.316 12.5174 14.3802 12.2691 14.4323 11.974C14.4844 11.6788 14.5191 11.3212 14.5365 10.901C14.5538 10.4809 14.5642 10.1458 14.5677 9.89583C14.5712 9.64583 14.5712 9.27952 14.5677 8.79688C14.5642 8.31423 14.5625 8.04861 14.5625 8C14.5625 7.95139 14.5642 7.68577 14.5677 7.20313C14.5712 6.72048 14.5712 6.35417 14.5677 6.10417C14.5642 5.85417 14.5538 5.5191 14.5365 5.09896C14.5191 4.67882 14.4844 4.32118 14.4323 4.02604C14.3802 3.7309 14.316 3.48264 14.2396 3.28125C14.1007 2.93403 13.8993 2.62847 13.6354 2.36458C13.3715 2.10069 13.066 1.89931 12.7188 1.76042C12.5174 1.68403 12.2691 1.61979 11.974 1.56771C11.6788 1.51562 11.3212 1.4809 10.901 1.46354C10.4809 1.44618 10.1458 1.43576 9.89583 1.43229C9.64583 1.42882 9.27778 1.43056 8.79167 1.4375ZM15.9479 4.69792C15.9826 5.30903 16 6.40971 16 8C16 9.59029 15.9826 10.691 15.9479 11.3021C15.8785 12.7465 15.4479 13.8646 14.6562 14.6562C13.8646 15.4479 12.7465 15.8785 11.3021 15.9479C10.691 15.9826 9.59029 16 8 16C6.40971 16 5.30903 15.9826 4.69792 15.9479C3.25346 15.8785 2.13542 15.4479 1.34375 14.6562C0.552079 13.8646 0.121528 12.7465 0.0520833 11.3021C0.0173609 10.691 0 9.59029 0 8C0 6.40971 0.0173609 5.30903 0.0520833 4.69792C0.121528 3.25346 0.552079 2.13542 1.34375 1.34375C2.13542 0.552079 3.25346 0.121528 4.69792 0.0520833C5.30903 0.0173609 6.40971 0 8 0C9.59029 0 10.691 0.0173609 11.3021 0.0520833C12.7465 0.121528 13.8646 0.552079 14.6562 1.34375C15.4479 2.13542 15.8785 3.25346 15.9479 4.69792Z" fill="#9CA0AB"/>
</svg>
