<?xml version="1.0" standalone="no"?>
<!DOCTYPE svg PUBLIC "-//W3C//DTD SVG 20010904//EN"
 "http://www.w3.org/TR/2001/REC-SVG-20010904/DTD/svg10.dtd">
<svg version="1.0" xmlns="http://www.w3.org/2000/svg"
 width="512.000000pt" height="512.000000pt" viewBox="0 0 512.000000 512.000000"
 preserveAspectRatio="xMidYMid meet">

<g transform="translate(0.000000,512.000000) scale(0.100000,-0.100000)"
fill="#000000" stroke="none">
<path d="M226 4061 c-93 -62 -86 -193 14 -243 33 -17 164 -18 2318 -18 2087 0
2287 1 2318 16 100 47 108 179 15 241 l-34 23 -2301 0 c-2237 0 -2302 -1
-2330 -19z"/>
<path d="M231 2742 c-97 -52 -91 -194 9 -244 33 -17 164 -18 2318 -18 2492 0
2326 -4 2370 57 48 68 32 154 -37 200 l-34 23 -2296 0 c-2205 0 -2298 -1
-2330 -18z"/>
<path d="M245 1431 c-35 -15 -74 -62 -81 -97 -13 -71 16 -129 83 -163 16 -8
637 -11 2308 -11 1920 0 2291 2 2319 14 101 42 111 181 17 243 l-34 23 -2296
-1 c-1263 0 -2305 -4 -2316 -8z"/>
</g>
</svg>
